<svg id="visual" viewBox="0 0 450 900" width="450" height="900" xmlns="http://www.w3.org/2000/svg" xmlns:xlink="http://www.w3.org/1999/xlink" version="1.1"><rect width="450" height="900" fill="#fad385"></rect><g><g transform="translate(206 817)"><path d="M65.1 -1.1C65.1 33.1 32.5 66.2 -2.6 66.2C-37.8 66.2 -75.5 33.1 -75.5 -1.1C-75.5 -35.3 -37.8 -70.5 -2.6 -70.5C32.5 -70.5 65.1 -35.3 65.1 -1.1Z" fill="#ffc662"></path></g><g transform="translate(195 521)"><path d="M60.2 0.7C60.2 26.8 30.1 53.7 1 53.7C-28.2 53.7 -56.4 26.8 -56.4 0.7C-56.4 -25.5 -28.2 -50.9 1 -50.9C30.1 -50.9 60.2 -25.5 60.2 0.7Z" fill="#ffc662"></path></g><g transform="translate(55 130)"><path d="M59.9 -3.6C59.9 23.9 30 47.8 0.4 47.8C-29.2 47.8 -58.3 23.9 -58.3 -3.6C-58.3 -31 -29.2 -62 0.4 -62C30 -62 59.9 -31 59.9 -3.6Z" fill="#ffc662"></path></g><g transform="translate(448 128)"><path d="M57.6 1.4C57.6 26.7 28.8 53.5 -0.5 53.5C-29.8 53.5 -59.7 26.7 -59.7 1.4C-59.7 -23.9 -29.8 -47.9 -0.5 -47.9C28.8 -47.9 57.6 -23.9 57.6 1.4Z" fill="#ffc662"></path></g><g transform="translate(413 670)"><path d="M61.8 2.9C61.8 29.5 30.9 59.1 1.7 59.1C-27.5 59.1 -55 29.5 -55 2.9C-55 -23.7 -27.5 -47.4 1.7 -47.4C30.9 -47.4 61.8 -23.7 61.8 2.9Z" fill="#ffc662"></path></g><g transform="translate(424 406)"><path d="M53.4 -1.3C53.4 24.7 26.7 49.5 0.8 49.5C-25.2 49.5 -50.3 24.7 -50.3 -1.3C-50.3 -27.3 -25.2 -54.6 0.8 -54.6C26.7 -54.6 53.4 -27.3 53.4 -1.3Z" fill="#ffc662"></path></g><g transform="translate(19 363)"><path d="M49.5 1.4C49.5 28 24.8 56 -1.3 56C-27.3 56 -54.5 28 -54.5 1.4C-54.5 -25.3 -27.3 -50.5 -1.3 -50.5C24.8 -50.5 49.5 -25.3 49.5 1.4Z" fill="#ffc662"></path></g></g></svg>